<svg width="12" height="12" viewBox="0 0 12 12" fill="none" xmlns="http://www.w3.org/2000/svg">
    <g clip-path="url(#clip0_9_71)">
        <path d="M6 8C6.53043 8 7.03914 7.78929 7.41421 7.41421C7.78929 7.03914 8 6.53043 8 6C8 5.46957 7.78929 4.96086 7.41421 4.58579C7.03914 4.21071 6.53043 4 6 4C5.46957 4 4.96086 4.21071 4.58579 4.58579C4.21071 4.96086 4 5.46957 4 6C4 6.53043 4.21071 7.03914 4.58579 7.41421C4.96086 7.78929 5.46957 8 6 8Z" stroke="#787878" stroke-width="1.25" stroke-linecap="round" stroke-linejoin="round"/>
        <path d="M1.5 8V4C1.5 3.33696 1.76339 2.70107 2.23223 2.23223C2.70107 1.76339 3.33696 1.5 4 1.5H8C8.66304 1.5 9.29893 1.76339 9.76777 2.23223C10.2366 2.70107 10.5 3.33696 10.5 4V8C10.5 8.66304 10.2366 9.29893 9.76777 9.76777C9.29893 10.2366 8.66304 10.5 8 10.5H4C3.33696 10.5 2.70107 10.2366 2.23223 9.76777C1.76339 9.29893 1.5 8.66304 1.5 8Z" stroke="#787878" stroke-width="1.25"/>
        <path d="M8.75 3.25593L8.75583 3.24951" stroke="#787878" stroke-width="1.25" stroke-linecap="round" stroke-linejoin="round"/>
    </g>
    <defs>
        <clipPath id="clip0_9_71">
            <rect width="12" height="12" fill="white"/>
        </clipPath>
    </defs>
</svg>
